/* XPM */
static const char *go_last[] = {
/* columns rows colors chars-per-pixel */
"16 16 100 2",
"   c #3A7304",
".  c #3A7404",
"X  c #3B7404",
"o  c #3B7504",
"O  c #3B7604",
"+  c #3B7506",
"@  c #3C7604",
"#  c #3D7904",
"$  c #3F790A",
"%  c #42790E",
"&  c #447B11",
"*  c #497E17",
"=  c #4E9A06",
"-  c #509E07",
";  c #4D8519",
":  c #52891E",
">  c #589F14",
",  c #52A108",
"<  c #56A609",
"1  c #58A90A",
"2  c #5AAD0B",
"3  c #5DB10C",
"4  c #5EB30D",
"5  c #59A016",
"6  c #5EA718",
"7  c #61B70E",
"8  c #62B80E",
"9  c #66BE10",
"0  c #66BB16",
"q  c #6ABB1B",
"w  c #6CBC1F",
"e  c #568927",
"r  c #629135",
"t  c #6AB226",
"y  c #71BC2A",
"u  c #6CA436",
"i  c #6CAB30",
"p  c #6EA33D",
"a  c #71AE37",
"s  c #73B930",
"d  c #76BB35",
"f  c #76B23D",
"g  c #67C011",
"h  c #6AC412",
"j  c #6CC813",
"k  c #6DC815",
"l  c #7DB845",
"z  c #7EA955",
"x  c #80CC35",
"c  c #83BE4B",
"v  c #84BF4C",
"b  c #89B85B",
"n  c #8EBE5F",
"m  c #86AF60",
"M  c #83C245",
"N  c #87C34D",
"B  c #88C64B",
"V  c #88C54D",
"C  c #87C150",
"Z  c #8BC353",
"A  c #8CC356",
"S  c #8AC058",
"D  c #8DC459",
"F  c #8EC25C",
"G  c #97DC55",
"H  c #91C560",
"J  c #92C560",
"K  c #99CE66",
"L  c #9FCB76",
"P  c #A5DC6E",
"I  c #A3C97F",
"U  c #A3CA7E",
"Y  c #A6CF7F",
"T  c #A3D673",
"R  c #A6D777",
"E  c #AAD97D",
"W  c #A2C581",
"Q  c #A4C684",
"!  c #ACCF8A",
"~  c #A9D480",
"^  c #ACD881",
"/  c #AFDC83",
"(  c #AFDD83",
")  c #AFD28D",
"_  c #B0D190",
"`  c #B0D092",
"'  c #B2D393",
"]  c #B4D694",
"[  c #B4D496",
"{  c #B7D69A",
"}  c #BAD79E",
"|  c #BAD6A0",
" . c #BCD8A0",
".. c #BDD9A1",
"X. c #BFDBA4",
"o. c #C0DBA7",
"O. c #C0DCA4",
"+. c #C1DBA9",
"@. c #C3DCAB",
"#. c None",
/* pixels */
"#.#.#.#.#.. #.#.#.#.#.#.#.#..   ",
"#.#.#.#.#.  e . #.#.#.#.#.#.    ",
"#.#.#.#.#.  X.z . #.#.#.#.#.    ",
"#.#.#.#.#.. @...Q & #.#.#.#.    ",
".         o +.F ) } r   #.#.    ",
"  ' [ { } ..O.b D U ..m + #.    ",
"  ' i a f l c N Z A H [ W *     ",
"  ! > > 6 t d M B V N c L [     ",
"  U = - < 2 4 7 0 w y s J U . . ",
"  U = , 1 4 7 9 h 8 q K b %     ",
"  U U Y Y ^ ( h j d E a . #.    ",
"      o o # ( k G T : # #.#.    ",
"#.#.#.#.#.  ( P A % #.#.#.#..   ",
"#.#.#.#.#.. E u . #.#.#.#.#.    ",
"#.#.#.#.#.. ; # #.#.#.#.#.#.    ",
"#.#.#.#.#.. #.#.#.#.#.#.#.#.    "
};
