/* XPM */
static const char *document_open[] = {
/* columns rows colors chars-per-pixel */
"16 16 137 2",
"   c #484848",
".  c #494949",
"X  c #4C4C4C",
"o  c #454A51",
"O  c #515151",
"+  c #555753",
"@  c #565656",
"#  c #565854",
"$  c #575955",
"%  c #595B57",
"&  c #5B5B5B",
"*  c #5A5C58",
"=  c #5B5C58",
"-  c #5B5C59",
";  c #5B5D59",
":  c #5B5E5A",
">  c #5D5F5B",
",  c #5F5F5F",
"<  c #5F615D",
"1  c #656565",
"2  c #6A6A6A",
"3  c #6E6E6E",
"4  c #737373",
"5  c #787878",
"6  c #797979",
"7  c #7A7A7A",
"8  c #3465A4",
"9  c #3565A4",
"0  c #3465A5",
"q  c #3466A4",
"w  c #3566A4",
"e  c #3566A5",
"r  c #3666A4",
"t  c #3666A5",
"y  c #3767A5",
"u  c #3567A6",
"i  c #3667A6",
"p  c #3767A6",
"a  c #3768A5",
"s  c #3868A5",
"d  c #3968A5",
"f  c #406CA5",
"g  c #4B7EB7",
"h  c #7E8896",
"j  c #5588BF",
"k  c #5689C0",
"l  c #77A2D2",
"z  c #79A3D3",
"x  c #7BA5D3",
"c  c #7DA6D4",
"v  c #7EA7D4",
"b  c #7FA8D4",
"n  c #939392",
"m  c #969796",
"M  c #999999",
"N  c #9B9B9B",
"B  c #9C9D9B",
"V  c #9C9D9C",
"C  c #9FA09E",
"Z  c #A1A1A1",
"A  c #A2A3A2",
"S  c #A5A5A4",
"D  c #A5A5A5",
"F  c #A6A6A6",
"G  c #A9A9A9",
"H  c #AAAAAA",
"J  c #ACACAC",
"K  c #AEAEAE",
"L  c #B0B0B0",
"P  c #B3B3B3",
"I  c #B7B7B7",
"U  c #BDBDBD",
"Y  c #81A9D5",
"T  c #82AAD5",
"R  c #83AAD6",
"E  c #85ABD5",
"W  c #85ACD7",
"Q  c #8AAFD8",
"!  c #8BB0D8",
"~  c #8EB2D9",
"^  c #8FB2DA",
"/  c #92B5DB",
"(  c #94B5DB",
")  c #95B6DB",
"_  c #95B7DC",
"`  c #96B7DC",
"'  c #95B8DC",
"]  c #98B9DD",
"[  c #9ABADD",
"{  c #9BBADD",
"}  c #A5C1E1",
"|  c #B1C9E4",
" . c #B8CEE7",
".. c #B9D0E7",
"X. c #BBD2E8",
"o. c #BFD2E9",
"O. c #C1C1C0",
"+. c #C4C4C4",
"@. c #C5C5C5",
"#. c #C7C7C7",
"$. c #C9C9C9",
"%. c #CDCDCD",
"&. c #CFCFCF",
"*. c #D0D0D0",
"=. c #D0D1D0",
"-. c #D2D2D2",
";. c #D3D3D3",
":. c #D5D5D4",
">. c #D9D9D9",
",. c #DADADA",
"<. c #DCDCDC",
"1. c #DDDDDD",
"2. c #DEDEDE",
"3. c #DFDFDF",
"4. c #C0D5EA",
"5. c #C1D5EA",
"6. c #C1D6EA",
"7. c #C3D6EA",
"8. c #C5D7EB",
"9. c #E0E0E0",
"0. c #E2E2E2",
"q. c #E3E3E3",
"w. c #E5E5E5",
"e. c #E6E6E6",
"r. c #E7E7E7",
"t. c #E8E8E8",
"y. c #E9E9E9",
"u. c #EAEAEA",
"i. c #EBEBEB",
"p. c #F7F7F7",
"a. c #F9F9F9",
"s. c #FAFAFA",
"d. c #FBFBFB",
"f. c #FCFCFC",
"g. c #FDFDFD",
"h. c #FEFEFE",
"j. c None",
/* pixels */
"j.j.j.j.# # # # % % * < j.j.j.j.",
"7 7 7 7 + p.s.s.s.s.g.A = j.j.j.",
"7 $.@.@.+ ,.;.;.;.&.&.g.n = j.j.",
"4 @.L H + <.V B V V :.g.g.m = j.",
"3 O.H H # 0.0.2.2.2.2.u.e.=.< j.",
"2 U H F # e.V B B B 2.0.q.=.= j.",
"1 I F A # i.u.u.u.t.e.u.e.,.= j.",
", L f d d a i i i 8 8 i 8 8 i i ",
"* J i 6.6.o.6.6.o.6.6.6.6.6...8 ",
"+ G 8 8./ / / ) / / / / / ] ..8 ",
"O D i 8.' ] ] ] ] ] ] ] ] ]  .i ",
"X Z p 6.{ ] ] { ] ] { ] ~ ! | 8 ",
". N p } ~ ! W Y Y c z l l x ) a ",
". M p ( Y c c c c c c c x b E i ",
"  h d j j j j j k k j j j j g i ",
"o 9 9 i 8 8 i 8 8 i 8 8 i 8 i j."
};
