/* XPM */
static const char *document_properties[] = {
/* columns rows colors chars-per-pixel */
"16 16 41 1",
"  c #585858",
". c #595959",
"X c #626262",
"o c #696966",
"O c #696969",
"+ c #6A6A6A",
"@ c #6C6C6C",
"# c #777777",
"$ c #818181",
"% c #858585",
"& c #909090",
"* c #929292",
"= c #959595",
"- c #999999",
"; c #9D9D9D",
": c #9E9E9E",
"> c #ABABAB",
", c #ADADAD",
"< c #B0B0B0",
"1 c #B5B5B5",
"2 c #BABABA",
"3 c #C4C4C4",
"4 c #C5C5C5",
"5 c #C6C6C6",
"6 c #C7C7C7",
"7 c #C8C8C8",
"8 c #D2D2CC",
"9 c #D2D2D2",
"0 c #D4D4D4",
"q c #D6D6D6",
"w c #DCDCDC",
"e c #E0E0E0",
"r c #EAEAEA",
"t c #EBEBEB",
"y c #ECECEC",
"u c #EDEDED",
"i c #EEEEEE",
"p c #EFEFEF",
"a c #F0F0F0",
"s c #FFFFFF",
"d c None",
/* pixels */
"d-$$$$$$$$$$$$dd",
"d$ssssssssssss$d",
"d$syrrrrrryyas$d",
"d$sr55555555as$d",
"d$srryOOO9yaas$d",
"d$sr55<   57as$d",
"d$syO9y9Ooyyas$d",
"d$sr  < @O8yas$d",
"d$syOOO@OOOqas$d",
"d$sy<     X@ws$d",
"d$syyyyaq#%*:s$d",
"d$sy777771*:>s$d",
"d$syyyayaae,2s$d",
"d$ssssssssssss$d",
"d=$$$$$$$$$$$$=d",
"dddddddddddddddd"
};
