/* XPM */
static const char *preferences_system[] = {
/* columns rows colors chars-per-pixel */
"16 16 44 1",
"  c #204A87",
". c #7D8385",
"X c #748AA2",
"o c #788DA4",
"O c #728BAE",
"+ c #7D91A7",
"@ c #7C93B3",
"# c #7A95B4",
"$ c #7A95B5",
"% c #888A85",
"& c #8A8C87",
"* c #A0A19E",
"= c #869CB8",
"- c #92A5BE",
"; c #A4A4A3",
": c #ABACA9",
"> c #ADADAA",
", c #B8B7B5",
"< c #B9B8B7",
"1 c #BAB9B6",
"2 c #BFBEBD",
"3 c #ADBBCC",
"4 c #BDC8D4",
"5 c #C4C3C2",
"6 c #C6C4C2",
"7 c #CAC9C8",
"8 c #D2D1D0",
"9 c #D4D3D2",
"0 c #D4D3D3",
"q c #E4E3E2",
"w c #E5E3E2",
"e c #ECEBE9",
"r c #ECECEA",
"t c #EEEEEC",
"y c #EEEEED",
"u c #EFEFEE",
"i c #F0F0EE",
"p c #F0F0EF",
"a c #F0F0F0",
"s c #F3F3F3",
"d c #F6F6F5",
"f c #F7F7F7",
"g c #FAFAFA",
"h c None",
/* pixels */
"hhhhhhhhhhhhhhhh",
"hhhh%hhhhhhhh%hh",
"hhh%e%hhhhhh%u%h",
"hhhh%p%hhhh%s%hh",
"h%hh%g%hhhh%%hhh",
"%d:%dw>uhh%hhhhh",
"h%spur1%h%hhhhhh",
"hh%%%%8;%%hhhhhh",
"hhhhhh,%1%hhhhhh",
"hhh   .>72%hhhhh",
"hh 33@ %%02%hhhh",
"h 4oo- hh%w6%%hh",
" 3oX#@ hhh%05%hh",
" 3+#O hhhhh%*%hh",
" -== hhhhhh%%%hh",
"h   hhhhhhhhhhhh"
};
